# xmcd
#
# Track frame offsets:
#	150
#	10124
#	21298
#	33460
#	52147
#	68460
#	88360
#	106184
#	149527
#	168004
#	187555
#	210249
#	229402
#	251892
#	268381
#	290855
#	312974
#	325215
#
# Disc length: 4582 seconds
#
# Revision: 0
# Processed by: cddbd v1.5.1PL0 Copyright (c) Steve Scherf et al.
# Submitted via: dBpowerAMP V4.0
#
DISCID=0611e412
DTITLE=Beyonce - Beyonce
DYEAR=2004
DGENRE=Hip-Hop
TTITLE0=Learn To Be Lonely
TTITLE1=Look To You Path
TTITLE2=Believe
TTITLE3=Wishing On A Star
TTITLE4=What's It Gonna Be
TTITLE5=My First Time
TTITLE6=Crazy In Love
TTITLE7=Naughty Girl
TTITLE8=Baby Boy
TTITLE9=Be With You
TTITLE10=Me, Myself And I
TTITLE11=Yes
TTITLE12=Sings
TTITLE13=That's How You Like It
TTITLE14=The Closer I Get To You
TTITLE15=Dangerously In Love 2
TTITLE16=Gift From Virgo
TTITLE17=Work It Out
EXTD=hey~
EXTT0=
EXTT1=
EXTT2=
EXTT3=
EXTT4=
EXTT5=
EXTT6=
EXTT7=
EXTT8=
EXTT9=
EXTT10=
EXTT11=
EXTT12=
EXTT13=
EXTT14=
EXTT15=
EXTT16=
EXTT17=
PLAYORDER=
